<svg xmlns="http://www.w3.org/2000/svg" version="1.1" xmlns:xlink="http://www.w3.org/1999/xlink" width="200" height="200"><svg xmlns="http://www.w3.org/2000/svg" version="1.1" xmlns:xlink="http://www.w3.org/1999/xlink" viewBox="0 0 200 200"><rect width="200" height="200" fill="url('#gradient')"></rect><defs><linearGradient id="SvgjsLinearGradient1001" gradientTransform="rotate(45 0.5 0.5)"><stop offset="0%" stop-color="#e89d0c"></stop><stop offset="100%" stop-color="#e89d0c"></stop></linearGradient></defs><g><g fill="#1b3855" transform="matrix(4.726153846153847,0,0,4.726153846153847,10.133512460543557,133.60232934364905)" stroke="#0e5278" stroke-width="0"><path d="M9.98 0L9.15-2.66L4.45-2.66L3.63 0L-0.03 0L5.19-14.22L8.41-14.22L13.66 0L9.98 0ZM6.80-10.23L5.27-5.30L8.33-5.30L6.80-10.23ZM25.27-12.46L18.54-2.64L25.34-2.64L25.34 0L14.27 0L14.27-1.81L21.04-11.57L14.23-11.57L14.23-14.22L25.27-14.22L25.27-12.46ZM38.06-14.22L38.06-11.57L33.79-11.57L33.79 0L30.36 0L30.36-11.57L26.17-11.57L26.17-14.22L38.06-14.22Z"></path></g></g></svg><style>@media (prefers-color-scheme: light) { :root { filter: none; } }
@media (prefers-color-scheme: dark) { :root { filter: none; } }
</style></svg>