<svg width="218" height="29" xmlns="http://www.w3.org/2000/svg" xmlns:xlink="http://www.w3.org/1999/xlink" xml:space="preserve" overflow="hidden"><g transform="translate(-162 84)"><path d="M33.1567 27.4098C34.9411 24.8095 35.7957 23.4465 37.4255 20.735L49.0989 1.2847 49.5378 0.5539 30.5215 0.5539C30.2499 2.9986 29.9 4.9039 29.3954 7.30607L30.7535 7.38437C32.2673 2.2997 33.8981 1.83667 43.9882 1.83667L28.4248 27.4118 27.2445 27.4118C26.0024 27.4118 25.3035 26.5582 24.5669 24.8114L14.268 0.436933 13.9277 0.436933 5.00637 24.2633C4.07547 26.708 2.56167 27.4069 0.892233 27.4069 0.591705 27.4003 0.292686 27.3624-4.42505e-08 27.2938L0 28.5408 9.58643 28.5408 9.58643 27.2938C9.29484 27.3703 8.99469 27.4093 8.69323 27.4098 7.45107 27.4098 6.44187 26.8298 6.44187 25.5471 6.44187 24.6935 6.7918 23.374 7.14077 22.3261L8.2273 19.1825 17.5808 19.1825 19.5992 23.8767C19.9858 24.7689 20.3725 25.8168 20.3725 26.2054 20.3725 27.172 19.4793 27.4079 18.8974 27.4079 18.2743 27.4168 17.6516 27.378 17.0346 27.2919L17.0346 28.5389 34.0479 28.5389C35.7589 28.5128 37.6304 28.4944 39.5647 28.4944L40.2665 28.4944C38.6551 28.4993 37.0958 28.5147 35.6536 28.537L49.6287 28.537 49.6287 28.247C49.7253 24.9477 50.0956 22.9786 50.43 21.1903L49.0719 21.113C47.0535 26.0517 44.7644 27.3712 33.1567 27.4098ZM8.57723 18.095 12.4971 6.91843 17.1535 18.095Z" fill="#FFFFFF" transform="matrix(1.02229 0 0 1 162.007 -84)"/><path d="M67.2326 3.13587C68.7608 2.15608 70.5407 1.64126 72.356 1.65397 74.6563 1.62094 76.8838 2.4606 78.59 4.00393 79.3665 4.70251 80.0252 5.52182 80.5407 6.43027 81.0338 7.29369 81.3829 8.23175 81.5741 9.2075L83.3383 9.2075C83.13 8.02806 82.7386 6.88845 82.1783 5.82997 81.5954 4.72524 80.8314 3.72605 79.9182 2.8739 78.9567 1.9785 77.8383 1.26833 76.619 0.779133 75.3552 0.259711 73.9333 0 72.3531 0 70.0021 0 67.9299 0.599655 66.1364 1.79897 64.343 2.99828 62.9394 4.6864 61.9256 6.86333 60.9106 9.04155 60.4031 11.5871 60.4031 14.5 60.4031 17.4129 60.9106 19.9585 61.9256 22.1367 62.9413 24.3149 64.3449 26.0033 66.1364 27.202 67.928 28.4007 70.0002 29 72.3531 29 73.9339 29 75.3558 28.7403 76.619 28.2209 77.8389 27.7296 78.9563 27.0146 79.9134 26.1126 81.6968 24.4227 82.8962 22.2093 83.3383 19.7925L81.5741 19.7925C81.3819 20.7705 81.033 21.7108 80.5407 22.5775 80.0264 23.4884 79.3676 24.3097 78.59 25.0096 77.7794 25.7415 76.8431 26.3205 75.8263 26.7187 74.7194 27.1481 73.5403 27.361 72.3531 27.346 70.5396 27.3593 68.7608 26.8495 67.2297 25.8777 65.6727 24.8994 64.4277 23.4545 63.4945 21.5431 62.5614 19.6317 62.0961 17.284 62.0987 14.5 62.0987 11.7347 62.5649 9.396 63.4974 7.48393 64.43 5.57187 65.675 4.12251 67.2326 3.13587Z" fill="#FFFFFF" transform="matrix(1.02229 0 0 1 162.007 -84)"/><path d="M97.6391 0.386667 87.4534 28.6133 89.2726 28.6133 92.4974 19.5847 104.765 19.5847 107.99 28.6133 109.813 28.6133 99.6237 0.386667ZM93.0687 17.9868 98.5623 2.61 98.6967 2.61 104.19 17.9916Z" fill="#FFFFFF" transform="matrix(1.02229 0 0 1 162.007 -84)"/><path d="M129.42 1.48867C128.138 0.754 126.601 0.386667 124.81 0.386667L116.11 0.386667 116.11 28.6133 117.837 28.6133 117.837 17.3536 124.825 17.3536C126.607 17.3536 128.139 16.9837 129.421 16.2439 130.673 15.535 131.699 14.4859 132.378 13.2182 133.067 11.9409 133.412 10.4938 133.412 8.8769 133.412 7.2413 133.067 5.78485 132.378 4.50757 131.699 3.24068 130.673 2.1935 129.42 1.48867ZM130.87 12.4255C130.33 13.4487 129.507 14.2955 128.5 14.8654 127.469 15.4577 126.228 15.7541 124.778 15.7547L117.837 15.7547 117.837 1.98457 124.77 1.98457C126.222 1.98457 127.465 2.27875 128.498 2.86713 129.51 3.43278 130.336 4.28046 130.875 5.307 131.427 6.3452 131.703 7.53517 131.703 8.8769 131.702 10.2186 131.426 11.4015 130.874 12.4255Z" fill="#FFFFFF" transform="matrix(1.02229 0 0 1 162.007 -84)"/><path d="M140.31 0.3857 142.032 0.3857 142.032 28.6143 140.31 28.6143Z" fill="#FFFFFF" transform="matrix(1.02229 0 0 1 162.007 -84)"/><path d="M148.807 1.98457 157.834 1.98457 157.834 28.6143 159.558 28.6143 159.558 1.98457 168.586 1.98457 168.586 0.3857 148.807 0.3857 148.807 1.98457Z" fill="#FFFFFF" transform="matrix(1.02229 0 0 1 162.007 -84)"/><path d="M179.253 0.386667 169.07 28.6133 170.889 28.6133 174.114 19.5847 186.382 19.5847 189.607 28.6133 191.426 28.6133 181.237 0.386667ZM174.682 17.9877 180.176 2.61 180.314 2.61 185.808 17.9916Z" fill="#FFFFFF" transform="matrix(1.02229 0 0 1 162.007 -84)"/><path d="M199.449 27.0154 199.449 0.3857 197.726 0.3857 197.726 28.6143 213.233 28.6143 213.233 27.0154 199.449 27.0154Z" fill="#FFFFFF" transform="matrix(1.02229 0 0 1 162.007 -84)"/></g></svg>